<?xml version="1.0" encoding="UTF-8"?> <svg xmlns="http://www.w3.org/2000/svg" width="14" height="14" viewBox="0 0 14 14" fill="none"><path d="M9.9452 0H4.05481C3.49108 0 3.03601 0.457109 3.03601 1.01982V12.9812C3.03601 13.5434 3.49108 14 4.05481 14H9.9452C10.5079 14 10.964 13.5434 10.964 12.9812V1.01982C10.964 0.457109 10.5079 0 9.9452 0ZM5.54654 0.619343H8.45449C8.52796 0.619343 8.58765 0.729029 8.58765 0.864733C8.58765 1.00044 8.52796 1.11063 8.45449 1.11063H5.54654C5.47257 1.11063 5.4139 1.00044 5.4139 0.864733C5.4139 0.729029 5.47257 0.619343 5.54654 0.619343ZM7.00052 12.9934C6.64187 12.9934 6.35005 12.7016 6.35005 12.3425C6.35005 11.9833 6.64187 11.6925 7.00052 11.6925C7.35814 11.6925 7.64996 11.9833 7.64996 12.3425C7.64996 12.7016 7.35814 12.9934 7.00052 12.9934ZM10.2008 10.7645H3.79973V1.72079H10.2008V10.7645Z" fill="white" fill-opacity="0.8"></path></svg> 